<?xml version="1.0" encoding="UTF-8"?>
<svg xmlns="http://www.w3.org/2000/svg" xmlns:xlink="http://www.w3.org/1999/xlink" width="100pt" height="100pt" viewBox="0 0 100 100" version="1.1">
<g id="surface1343512">
<path style=" stroke:none;fill-rule:nonzero;fill:rgb(100%,100%,100%);fill-opacity:1;" d="M 64.769531 14 C 63.964844 14 63.261719 14.433594 62.773438 14.984375 C 62.289062 15.535156 61.945312 16.21875 61.652344 16.992188 C 61.074219 18.535156 60.71875 20.460938 60.480469 22.375 C 60.015625 26.058594 60.019531 29.429688 60.019531 29.707031 C 59 31.304688 58.125 32.996094 58.125 32.996094 C 58.109375 33.027344 58.09375 33.058594 58.082031 33.09375 C 57.035156 35.910156 55.230469 38.980469 53.289062 41.285156 C 51.347656 43.589844 49.210938 45 48 45 L 36.160156 45 C 35.785156 44.828125 33.914062 44 31 44 C 26.898438 44 22.804688 45.019531 19.613281 47.09375 C 19.261719 47.160156 13.007812 48.40625 9.378906 54.753906 C 7.882812 57.375 7 60.742188 7 65 C 7 66.816406 8.675781 68.261719 10.511719 67.957031 C 12.015625 67.710938 13 66.347656 13 64.902344 C 13.015625 62.300781 13.554688 60.941406 14.078125 60.15625 C 14.292969 65.945312 15.929688 71.867188 16 72.113281 L 16 81 C 16 81 15.984375 82.191406 16.5625 83.425781 C 17.140625 84.65625 18.519531 86 20.75 86 L 30 86 C 30.550781 86 31 85.550781 31 85 C 31 85 31.003906 83.792969 30.414062 82.46875 C 29.90625 81.328125 28.746094 80.136719 27 79.429688 L 27 76.828125 C 28.222656 76.65625 34.542969 75.707031 40.660156 72.679688 C 40.953125 72.8125 41.851562 73.257812 44.351562 73.792969 C 47.203125 74.402344 51.628906 75 58 75 L 61.152344 75 C 61.304688 76.007812 61.875 79.820312 62.21875 81.519531 C 62.433594 82.558594 62.625 83.632812 63.347656 84.550781 C 64.070312 85.472656 65.320312 86 67 86 L 76 86 C 76.550781 86 77 85.550781 77 85 C 77 85 77.003906 83.792969 76.414062 82.46875 C 75.90625 81.328125 74.746094 80.136719 73 79.429688 L 73 71.371094 C 78.828125 66.234375 79 60.449219 79 58.5 C 79 56.558594 78.476562 54.277344 77.96875 52.257812 C 77.71875 51.25 77.46875 50.308594 77.285156 49.550781 C 77.101562 48.789062 77 48.152344 77 48 C 77 47.734375 77.058594 47.601562 77.269531 47.382812 C 77.480469 47.164062 77.875 46.914062 78.421875 46.683594 C 79.519531 46.21875 81.179688 45.839844 82.972656 45.40625 C 86.566406 44.53125 90.882812 43.425781 92.699219 39.832031 C 92.703125 39.832031 92.703125 39.828125 92.703125 39.828125 C 92.8125 39.613281 92.871094 39.40625 92.910156 39.21875 C 92.96875 38.984375 93 38.746094 93 38.511719 L 93 36.671875 C 93 35.226562 91.960938 33.972656 90.539062 33.71875 L 88.179688 33.289062 C 88.179688 33.285156 88.179688 33.285156 88.175781 33.285156 L 81.726562 32.117188 C 81.5 31.476562 81.035156 30.308594 79.910156 28.882812 C 78.511719 27.097656 76.128906 25.328125 72.707031 25.089844 C 72.542969 24.578125 71.925781 22.589844 70.695312 20.0625 C 70.007812 18.644531 69.199219 17.214844 68.257812 16.082031 C 67.320312 14.945312 66.199219 14 64.769531 14 Z M 64.828125 16.011719 C 65.285156 16.042969 65.980469 16.464844 66.722656 17.359375 C 67.488281 18.285156 68.25 19.605469 68.898438 20.9375 C 70.195312 23.605469 71.046875 26.300781 71.046875 26.300781 C 71.179688 26.714844 71.5625 27 72 27 C 75.167969 27 77.089844 28.527344 78.335938 30.117188 C 79.585938 31.707031 80.039062 33.273438 80.039062 33.273438 C 80.054688 33.328125 80.074219 33.375 80.097656 33.421875 C 80.15625 33.621094 80.304688 34.101562 80.511719 34.960938 C 80.761719 35.976562 81 37.21875 81 38 C 81 38.230469 80.980469 38.398438 80.757812 38.628906 C 80.539062 38.859375 80.058594 39.152344 79.097656 39.390625 C 77.222656 39.851562 74.300781 40.335938 71.699219 41.050781 C 70.398438 41.40625 69.171875 41.816406 68.175781 42.332031 C 67.339844 42.761719 66.707031 43.296875 66.300781 43.953125 C 65.574219 43.894531 65.046875 43.601562 64.664062 43.035156 C 64.242188 42.410156 64 41.46875 64 40.375 C 64 34.800781 66.929688 29.753906 66.929688 29.753906 C 67.035156 29.578125 67.019531 29.359375 66.898438 29.199219 C 66.898438 29.199219 66.199219 28.269531 65.464844 26.339844 C 64.734375 24.40625 64 21.5 64 17.625 C 64 17.074219 64.125 16.628906 64.296875 16.363281 C 64.453125 16.117188 64.613281 16.027344 64.828125 16.011719 Z M 63.050781 19.320312 C 63.230469 22.488281 63.875 24.957031 64.535156 26.695312 C 65.230469 28.535156 65.820312 29.324219 65.953125 29.507812 C 65.734375 29.886719 63 34.679688 63 40.375 C 63 41.597656 63.253906 42.710938 63.820312 43.558594 C 61.929688 42.929688 60.527344 41.699219 59.515625 40.4375 C 58.804688 39.550781 58.304688 38.667969 57.972656 37.996094 C 58.742188 36.640625 59.410156 35.242188 59.925781 33.863281 C 59.945312 33.828125 60.800781 32.117188 61.832031 30.550781 C 61.941406 30.386719 62 30.195312 62 30 C 62 30 62 26.292969 62.460938 22.625 C 62.609375 21.46875 62.808594 20.332031 63.050781 19.320312 Z M 75 32 C 73.804688 32 73 32.796875 73 34 L 73 36 L 75 36 C 76.203125 36 77 35.203125 77 34 C 77 32.796875 76.203125 32 75 32 Z M 81.308594 34.074219 L 87.820312 35.253906 L 88 35.289062 C 88.003906 37.519531 89.78125 38.417969 90.964844 38.769531 C 90.964844 38.773438 90.964844 38.777344 90.960938 38.78125 C 90.945312 38.863281 90.929688 38.90625 90.917969 38.925781 C 89.628906 41.476562 86.039062 42.601562 82.5 43.460938 C 80.734375 43.890625 79.027344 44.257812 77.644531 44.839844 C 76.953125 45.132812 76.332031 45.480469 75.832031 45.988281 C 75.335938 46.5 75 47.226562 75 48 C 75 48.597656 75.148438 49.210938 75.339844 50.015625 C 75.53125 50.816406 75.78125 51.75 76.027344 52.742188 C 76.523438 54.722656 77 56.941406 77 58.5 C 77 60.5 77.082031 65.464844 71.359375 70.234375 C 71.132812 70.421875 71 70.703125 71 71 L 71 80 C 71 80.460938 71.3125 80.859375 71.757812 80.972656 C 73.453125 81.394531 74.175781 82.355469 74.585938 83.28125 C 74.757812 83.667969 74.699219 83.707031 74.757812 84 L 67 84 C 65.679688 84 65.238281 83.71875 64.917969 83.3125 C 64.597656 82.90625 64.386719 82.144531 64.179688 81.121094 C 63.828125 79.402344 62.988281 73.851562 62.988281 73.851562 C 62.984375 73.816406 62.976562 73.78125 62.964844 73.746094 L 62.023438 67.613281 C 62.140625 67.492188 62.246094 67.414062 62.441406 67.046875 C 62.726562 66.511719 63 65.707031 63 64.625 C 63 62.183594 61.992188 60.554688 60.382812 59.039062 C 58.777344 57.519531 56.574219 56.039062 53.960938 53.632812 C 51.628906 51.480469 50.253906 49.523438 49.464844 48.117188 C 49.199219 47.632812 49.015625 47.25 48.871094 46.917969 C 50.976562 46.527344 52.960938 44.777344 54.816406 42.574219 C 55.730469 41.492188 56.597656 40.273438 57.382812 38.996094 C 57.726562 39.625 58.144531 40.328125 58.734375 41.0625 C 60.226562 42.929688 62.621094 44.8125 66.054688 44.972656 C 66.199219 44.988281 66.347656 45 66.5 45 C 66.515625 45 66.535156 45 66.550781 45 C 66.75 44.980469 66.917969 44.847656 66.980469 44.660156 C 67.1875 44.179688 67.757812 43.671875 68.632812 43.21875 C 69.527344 42.757812 70.699219 42.359375 71.960938 42.015625 C 74.492188 41.320312 77.390625 40.839844 79.335938 40.363281 C 80.40625 40.097656 81.070312 39.753906 81.480469 39.320312 C 81.894531 38.886719 82 38.367188 82 38 C 82 37.03125 81.738281 35.773438 81.484375 34.726562 C 81.398438 34.359375 81.386719 34.359375 81.308594 34.074219 Z M 31 46 C 33.777344 46 35.550781 46.894531 35.550781 46.894531 C 35.691406 46.964844 35.84375 47 36 47 L 47.828125 47 C 47.996094 47.417969 48.230469 47.949219 48.597656 48.605469 C 49.433594 50.101562 50.871094 52.144531 53.289062 54.367188 C 55.953125 56.824219 58.1875 58.339844 59.699219 59.765625 C 61.207031 61.1875 62 62.441406 62 64.625 C 62 65.542969 61.773438 66.175781 61.558594 66.578125 C 61.34375 66.980469 61.167969 67.125 61.167969 67.125 C 61.042969 67.234375 60.980469 67.40625 61.003906 67.578125 L 61.839844 73 L 58 73 C 51.753906 73 47.472656 72.414062 44.769531 71.839844 C 42.070312 71.261719 41.03125 70.734375 41.03125 70.734375 C 40.75 70.59375 40.417969 70.597656 40.132812 70.742188 C 33.765625 73.996094 25.875 75.007812 25.875 75.007812 C 25.375 75.070312 25 75.496094 25 76 L 25 80 C 25 80.460938 25.3125 80.859375 25.757812 80.972656 C 27.453125 81.394531 28.175781 82.355469 28.585938 83.28125 C 28.757812 83.667969 28.699219 83.707031 28.757812 84 L 20.75 84 C 19.230469 84 18.734375 83.34375 18.375 82.578125 C 18.015625 81.808594 18 81 18 81 L 18 72 C 18 71.90625 17.988281 71.8125 17.960938 71.726562 C 17.960938 71.726562 16 64.777344 16 59 C 16 58.667969 15.992188 58.28125 16 58.035156 C 16 58.023438 16 58.011719 16 58 C 16 51.730469 20.695312 48.75 20.839844 48.660156 C 23.601562 46.917969 27.292969 46 31 46 Z M 18.351562 49.546875 C 16.957031 51.050781 15.320312 53.507812 15.050781 57 C 14.824219 56.992188 14.601562 57.054688 14.421875 57.183594 C 14.445312 57.167969 14.101562 57.355469 13.730469 57.625 C 13.355469 57.894531 12.910156 58.296875 12.496094 58.878906 C 11.984375 59.609375 11.53125 60.617188 11.261719 62 L 9.175781 62 C 9.480469 59.464844 10.167969 57.410156 11.121094 55.746094 C 13.234375 52.042969 16.375 50.316406 18.351562 49.546875 Z M 9.082031 63 L 11.109375 63 C 11.042969 63.578125 11.003906 64.203125 11 64.894531 C 11 64.894531 11 64.898438 11 64.898438 C 11 65.433594 10.625 65.910156 10.1875 65.980469 C 10.1875 65.984375 10.1875 65.984375 10.183594 65.984375 C 9.503906 66.097656 9 65.625 9 65 C 9 64.300781 9.035156 63.640625 9.082031 63 Z M 9.082031 63 "/>
</g>
</svg>
