<svg xmlns="http://www.w3.org/2000/svg" viewBox="0 0 100 100"><path fill="none" stroke="#000" stroke-linejoin="round" stroke-miterlimit="10" d="M48 46c0 0 .875 3.625 5.625 8 5.276 4.86 8.875 6 8.875 10.625 0 2-1 2.875-1 2.875l1 6.5M64.875 15.5c-.832 0-1.375.875-1.375 2.125 0 7.875 3 11.875 3 11.875s-3 5.125-3 10.875c0 2.334 1 4.125 3 4.125 1.081-2.69 8.894-3.683 12.718-4.625C81.25 39.375 81.5 38.599 81.5 38c0-1.75-1-5-1-5"/><path d="M75 32c-1.195 0-2 .797-2 2v2h2c1.203 0 2-.797 2-2S76.203 32 75 32zM92 36.67v1.84c0 .16-.02.32-.06.48C91.43 38.93 88 38.38 88 35.28v-1.01l2.36.43C91.31 34.87 92 35.7 92 36.67z"/><path fill="none" stroke="#000" stroke-linejoin="round" stroke-miterlimit="10" stroke-width="2" d="M92,36.67v1.84c0,0.16-0.02,0.32-0.06,0.48c-0.03,0.14-0.07,0.27-0.13,0.39C88.7,45.52,76,43.84,76,48c0,1.5,2,7,2,10.5c0,2,0,7.5-6,12.5v9c4,1,4,5,4,5s-7.05,0-9,0c-3,0-3.38-1.62-3.8-3.68C62.83,79.5,62,74,62,74s-1,0-4,0c-12.62,0-17.41-2.37-17.41-2.37C34,75,26,76,26,76v4c4,1,4,5,4,5s-7.21,0-9.25,0C17,85,17,81,17,81v-9c0,0-2-7-2-13c0-0.31-0.01-0.7,0-1c-0.52,0.37-2.97,1.21-3,6.9c0,0.99-0.68,1.91-1.65,2.07C9.09,67.18,8,66.22,8,65c0-4.12,0.85-7.3,2.25-9.75C13.75,49.12,20,48,20,48c3-2,7-3,11-3c3,0,5,1,5,1s8.36,0,12,0s8.83-6.67,11.02-12.56c0,0,0.89-1.79,1.98-3.44c0,0,0-15,3.77-15C68.54,15,72,26,72,26c7,0,9,7,9,7l7,1.27l2.36,0.43C91.31,34.87,92,35.7,92,36.67z"/><path fill="none" stroke="#000" stroke-linejoin="round" stroke-miterlimit="10" d="M20.625 48.2c0 0-5.125 3.175-5.125 9.8M8.375 62.5L12.375 62.5"/><path fill="none" stroke="#000" stroke-linecap="round" stroke-linejoin="round" stroke-miterlimit="10" d="M57,37c0,0,2.5,7.5,9.5,7.5"/></svg>